# xmcd
#
# Track frame offsets:
#   150
#   14580
#   34288
#   63878
#   96376
#   114973
#   133425
#   156869
#   170206
#   194473
#   206503
#   218500
#   232138
#
# Disc length: 3310 seconds
#
# Revision: 0
# Processed by: cddbd v1.5.1PL0 Copyright (c) Steve Scherf et al.
# Submitted via: uFREEDB ActiveX Control 1.5
#
DISCID=c30cec0d
DTITLE=Vaquejada - Vaquejada
DYEAR=1900
DGENRE=Country
TTITLE0=Musica 01
TTITLE1=Musica 02
TTITLE2=Musica 03
TTITLE3=Musica 04
TTITLE4=Musica 05
TTITLE5=Musica 06
TTITLE6=Musica 07
TTITLE7=Musica 08
TTITLE8=Musica 09
TTITLE9=Musica 10
TTITLE10=Musica 11
TTITLE11=Musica 12
TTITLE12=Musica 13
EXTD=
EXTT0=
EXTT1=
EXTT2=
EXTT3=
EXTT4=
EXTT5=
EXTT6=
EXTT7=
EXTT8=
EXTT9=
EXTT10=
EXTT11=
EXTT12=
PLAYORDER=
